<?xml version="1.0" encoding="UTF-8" standalone="no"?>
<!-- Created with Inkscape (http://www.inkscape.org/) -->

<svg
   width="101.79134mm"
   height="18.119919mm"
   viewBox="0 0 101.79134 18.119919"
   version="1.1"
   id="svg5"
   xmlns="http://www.w3.org/2000/svg"
   xmlns:svg="http://www.w3.org/2000/svg">
  <defs
     id="defs2" />
  <g
     id="layer1"
     transform="translate(-4.9275976,-239.01096)">
    <path
       d="m 8.558658,240.35262 0.0786,15.8608 97.176572,0.023 v -3.55653 c 0,-0.21296 0.0426,-0.36559 0.12778,-0.45787 0.0852,-0.0923 0.19522,-0.13843 0.3301,-0.13843 0.12778,0 0.23426,0.0462 0.31945,0.13843 0.0852,0.0852 0.12778,0.23781 0.12778,0.45787 v 4.45099 l -101.1164424,-0.023 c -0.21296,-5e-5 -0.36559,-0.0426 -0.45788,-0.12778 -0.0923,-0.0852 -0.13842,-0.19167 -0.13842,-0.31945 0,-0.13488 0.0461,-0.24137 0.13842,-0.31945 0.0923,-0.0852 0.24492,-0.12778 0.45788,-0.12778 H 7.732158 l -0.0786,-15.8608 H 5.5238976 c -0.21296,0 -0.36559,-0.039 -0.45788,-0.11713 -0.0923,-0.0852 -0.13842,-0.19522 -0.13842,-0.33008 0,-0.13488 0.0461,-0.24136 0.13842,-0.31946 0.0923,-0.0852 0.24492,-0.12777 0.45788,-0.12777 h 5.1644204 c 0.21296,0 0.36559,0.0426 0.45787,0.12777 0.0923,0.0781 0.13843,0.18458 0.13843,0.31946 0,0.13486 -0.0461,0.24489 -0.13843,0.33008 -0.0923,0.0781 -0.24491,0.11713 -0.45787,0.11713 z"
       id="path1386-8"
       style="font-size:21.8077px;font-family:monospace;-inkscape-font-specification:'monospace, Normal';stroke-width:0.577585" />
    <path
       d="m 23.586488,252.82178 v -1.30974 c -1.22101,1.10742 -2.54139,1.66113 -3.96116,1.66113 -0.87316,0 -1.5369,-0.23781 -1.99123,-0.71343 -0.58921,-0.6247 -0.88381,-1.35233 -0.88381,-2.1829 v -5.77138 h -1.20326 c -0.21297,0 -0.36559,-0.0426 -0.45788,-0.12778 -0.0923,-0.0852 -0.13842,-0.19521 -0.13842,-0.33009 0,-0.12777 0.0461,-0.23426 0.13842,-0.31945 0.0923,-0.0852 0.24491,-0.12778 0.45788,-0.12778 h 2.09771 v 6.67649 c 0,0.58211 0.18457,1.06128 0.55372,1.43752 0.36914,0.37624 0.83056,0.56436 1.38427,0.56436 1.45527,0 2.78985,-0.66729 4.00376,-2.00188 v -5.77139 h -1.65048 c -0.21297,0 -0.36559,-0.0426 -0.45788,-0.12777 -0.0923,-0.0852 -0.13843,-0.19521 -0.13843,-0.33009 0,-0.12778 0.0461,-0.23426 0.13843,-0.31945 0.0923,-0.0852 0.24491,-0.12778 0.45788,-0.12778 h 2.54494 v 8.32696 l 6.58328,-0.0293 c 0.21296,-9.5e-4 0.36559,0.0426 0.45787,0.12778 0.0923,0.0781 0.13843,0.18457 0.13843,0.31945 0,0.12778 -0.0461,0.23427 -0.13843,0.31945 -0.0923,0.0852 -0.24491,0.12695 -0.45787,0.12778 z"
       id="path1388-6"
       style="font-size:21.8077px;font-family:monospace;-inkscape-font-specification:'monospace, Normal';stroke-width:0.577585" />
    <path
       d="m 37.993628,239.45817 v 12.46915 l 6.51342,-0.0138 c 0.22006,-4.7e-4 0.37624,0.0426 0.46852,0.12778 0.0923,0.0781 0.13843,0.18457 0.13843,0.31945 0,0.12778 -0.0461,0.23427 -0.13843,0.31945 -0.0923,0.0852 -0.24846,0.12737 -0.46852,0.12778 l -7.41853,0.0138 v -1.77827 c -1.03643,1.41978 -2.35327,2.12966 -3.95051,2.12966 -0.80927,0 -1.5866,-0.21296 -2.33198,-0.6389 -0.73828,-0.43302 -1.32394,-1.04707 -1.75697,-1.84215 -0.42593,-0.79507 -0.63889,-1.61499 -0.63889,-2.45975 0,-0.85186 0.21296,-1.67178 0.63889,-2.45976 0.43303,-0.79507 1.01869,-1.40912 1.75697,-1.84215 0.74538,-0.43303 1.52626,-0.64955 2.34263,-0.64955 1.56175,0 2.87503,0.70989 3.93986,2.12966 v -5.04728 h -1.19261 c -0.22006,0 -0.37623,-0.0426 -0.46852,-0.12778 -0.0923,-0.0852 -0.13843,-0.19522 -0.13843,-0.3301 0,-0.12778 0.0461,-0.23426 0.13843,-0.31946 0.0923,-0.0852 0.24846,-0.12777 0.46852,-0.12777 z m -0.90511,8.7742 c 0,-1.13582 -0.38334,-2.09416 -1.15001,-2.87504 -0.76668,-0.78088 -1.67888,-1.17132 -2.73661,-1.17132 -1.06483,0 -1.98059,0.39044 -2.74726,1.17132 -0.76668,0.78088 -1.15002,1.73922 -1.15002,2.87504 0,1.12872 0.38334,2.08706 1.15002,2.87503 0.76667,0.78088 1.68243,1.17132 2.74726,1.17132 1.05773,0 1.96993,-0.39044 2.73661,-1.17132 0.76667,-0.78797 1.15001,-1.74631 1.15001,-2.87503 z"
       id="path1390-5"
       style="font-size:21.8077px;font-family:monospace;-inkscape-font-specification:'monospace, Normal';stroke-width:0.577585" />
    <path
       d="m 51.697978,248.23237 q 0,2.04447 -1.46947,3.49263 -1.45881,1.44817 -3.52458,1.44817 -2.08707,0 -3.54588,-1.44817 -1.45882,-1.45881 -1.45882,-3.49263 0,-2.04448 1.45882,-3.49264 1.45881,-1.45882 3.54588,-1.45882 2.06577,0 3.52458,1.44817 1.46947,1.44817 1.46947,3.50329 z m -0.90511,0 q 0,-1.68243 -1.20326,-2.86439 -1.1926,-1.18197 -2.89633,-1.18197 -1.70373,0 -2.90698,1.19261 -1.19261,1.18196 -1.19261,2.85375 0,1.66113 1.19261,2.85374 1.20325,1.19261 2.90698,1.19261 1.70373,0 2.89633,-1.18196 1.20326,-1.19261 1.20326,-2.86439 z"
       id="path1392-8"
       style="font-size:21.8077px;font-family:monospace;-inkscape-font-specification:'monospace, Normal';stroke-width:0.577585" />
    <path
       d="m 60.567998,252.82178 h -1.51205 l -4.01947,-8.21949 -6.45826,-0.0913 c -0.21295,-0.003 -0.36559,-0.0426 -0.45787,-0.12778 -0.0923,-0.0852 -0.13843,-0.19522 -0.13843,-0.33008 0,-0.12778 0.0461,-0.23427 0.13843,-0.31946 0.0923,-0.0852 0.24491,-0.12997 0.45787,-0.12777 l 8.89671,0.0913 c 0.21296,0.002 0.3656,0.0426 0.45788,0.12777 0.0923,0.0852 0.13843,0.19522 0.13843,0.3301 0,0.12777 0.29967,0.13743 0.20738,0.22261 -0.0923,0.0852 -0.24491,0.12778 -0.45788,0.12778 h -1.48011 l 3.27968,7.42186 h 0.39398 l 3.21579,-7.42186 h -1.49076 c -0.21297,0 -0.36559,-0.0426 -0.45788,-0.12778 -0.0923,-0.0852 -0.13843,-0.19521 -0.13843,-0.33009 0,-0.12777 0.0461,-0.23426 0.13843,-0.31945 0.0923,-0.0852 0.24491,-0.12778 0.45788,-0.12778 h 8.77587 c 0.22007,0 0.37269,0.0426 0.45788,0.12778 0.0923,0.0852 0.13843,0.19522 0.13843,0.3301 0,0.12778 -0.0461,0.23426 -0.13843,0.31944 -0.0852,0.0852 -0.23781,0.12778 -0.45788,0.12778 h -6.31612 z"
       id="path1394-3"
       style="font-size:21.8077px;font-family:monospace;-inkscape-font-specification:'monospace, Normal';stroke-width:0.577585" />
    <path
       d="m 73.314008,239.01096 v 2.31067 h -1.32039 v -2.31067 z m 0.0319,4.5894 v 8.32696 h 8.381212 c 0.22007,0 0.37624,0.0426 0.46852,0.12778 0.0923,0.0781 0.13843,0.18457 0.13843,0.31945 0,0.12778 -0.0461,0.23427 -0.13843,0.31945 -0.0923,0.0852 -0.24845,0.12778 -0.46852,0.12778 H 68.937518 c -0.21297,0 -0.36559,-0.0426 -0.45788,-0.12778 -0.0923,-0.0852 -0.13842,-0.19167 -0.13842,-0.31945 0,-0.13488 0.0461,-0.24136 0.13842,-0.31945 0.0923,-0.0852 0.24491,-0.12778 0.45788,-0.12778 h 3.51394 v -7.42186 h -2.60883 c -0.21297,0 -0.36914,-0.0426 -0.46853,-0.12777 -0.0923,-0.0852 -0.13843,-0.19166 -0.13843,-0.31944 0,-0.13488 0.0461,-0.24491 0.13843,-0.3301 0.0923,-0.0852 0.24846,-0.12778 0.46853,-0.12778 z"
       id="path1396-4"
       style="font-size:21.8077px;font-family:monospace;-inkscape-font-specification:'monospace, Normal';stroke-width:0.577585" />
    <path
       d="m 87.369928,244.48948 v -0.29815 c 0,-0.22006 0.0426,-0.37624 0.12778,-0.46852 0.0852,-0.0923 0.19167,-0.13843 0.31944,-0.13843 0.13488,0 0.24491,0.0461 0.3301,0.13843 0.0852,0.0923 0.12778,0.24846 0.12778,0.46852 v 2.02319 c -0.007,0.22005 -0.0532,0.37623 -0.13843,0.46852 -0.0781,0.0923 -0.18457,0.13843 -0.31945,0.13843 -0.12068,0 -0.22361,-0.039 -0.3088,-0.11713 -0.0781,-0.0852 -0.12423,-0.22361 -0.13842,-0.41529 -0.0426,-0.50401 -0.37625,-0.98318 -1.00094,-1.43751 -0.6176,-0.45433 -1.45172,-0.6815 -2.50235,-0.6815 -1.32749,0 -2.33553,0.41529 -3.02412,1.24585 -0.68859,0.83057 -1.03288,1.78182 -1.03288,2.85375 0,1.15712 0.37979,2.11191 1.13937,2.86439 0.75957,0.75248 1.74276,1.12872 2.94957,1.12872 0.69569,0 1.40203,-0.12778 2.11901,-0.38334 0.72409,-0.25556 5.69845,-3.35973 6.28055,-3.92764 0.14908,-0.14198 0.57856,-0.0852 0.69214,-0.0852 0.12068,0 -0.07808,-0.0852 0,0 0.0852,0.0781 0.12778,0.17747 0.12778,0.29815 0,0.30526 -4.67975,3.38458 -5.39674,3.8531 -1.15711,0.75958 -2.44556,1.13937 -3.86533,1.13937 -1.44107,0 -2.62658,-0.45787 -3.55653,-1.37363 -0.92285,-0.92285 -1.38428,-2.09061 -1.38428,-3.50329 0,-1.44106 0.47208,-2.63722 1.41623,-3.58847 0.95125,-0.95124 2.1474,-1.42687 3.58847,-1.42687 1.37008,0 2.5201,0.40819 3.45005,1.22454 z"
       id="path1398-4"
       style="font-size:21.8077px;font-family:monospace;-inkscape-font-specification:'monospace, Normal';stroke-width:0.577585" />
    <path
       d="m 98.52141,252.8058 v -1.28844 q -1.94864,1.63983 -4.163492,1.63983 -1.60789,0 -2.51299,-0.80927 -0.90511,-0.81992 -0.90511,-2.00188 0,-1.29909 1.19261,-2.26808 1.19261,-0.969 3.481992,-0.969 0.6176,0 1.34169,0.0852 0.72408,0.0745 1.5653,0.24491 v -1.44817 q 0,-0.73473 -0.68149,-1.27779 -0.68149,-0.54307 -2.04448,-0.54307 -1.043532,0 -2.928282,0.60696 -0.34074,0.10648 -0.43658,0.10648 -0.17037,0 -0.29815,-0.12778 -0.11713,-0.12778 -0.11713,-0.31945 0,-0.18102 0.10648,-0.2875 0.14908,-0.15973 1.20326,-0.43658 1.661132,-0.44723 2.513002,-0.44723 1.69308,0 2.64077,0.84122 0.9477,0.83056 0.9477,1.88474 v 5.92046 h 1.19261 q 0.3301,0 0.46852,0.12777 0.13843,0.11713 0.13843,0.31945 0,0.19167 -0.13843,0.31946 -0.13842,0.12777 -0.46852,0.12777 z m 0,-4.45099 q -0.62825,-0.18102 -1.33104,-0.2662 -0.70279,-0.0852 -1.48011,-0.0852 -1.948642,0 -3.045412,0.84121 -0.83057,0.62825 -0.83057,1.50141 0,0.80927 0.62825,1.36298 0.6389,0.55372 1.8528,0.55372 1.160672,0 2.150962,-0.45788 1.00094,-0.46853 2.05512,-1.48011 z"
       id="path1400-9"
       style="font-size:21.8077px;font-family:monospace;-inkscape-font-specification:'monospace, Normal';stroke-width:0.577585" />
  </g>
</svg>
